<svg xmlns="http://www.w3.org/2000/svg" width="70.86" height="35" viewBox="0 0 70.86 35"><rect class="svg__rect" x="0" y="0" width="0" height="35" fill="#31C4F3"/><rect class="svg__rect" x="0" y="0" width="70.86" height="35" fill="#4EAA25"/><path class="svg__text" d="" fill="#FFFFFF"/><path class="svg__text" d="M18.73 22L14.19 22L14.19 13.60L18.49 13.60Q20.09 13.60 20.93 14.19Q21.78 14.79 21.78 15.79L21.78 15.79Q21.78 16.39 21.48 16.87Q21.18 17.34 20.64 17.62L20.64 17.62Q21.37 17.87 21.77 18.41Q22.18 18.94 22.18 19.70L22.18 19.70Q22.18 20.80 21.29 21.40Q20.40 22 18.73 22L18.73 22ZM16.54 18.58L16.54 20.28L18.54 20.28Q19.78 20.28 19.78 19.43L19.78 19.43Q19.78 18.58 18.54 18.58L18.54 18.58L16.54 18.58ZM16.54 15.31L16.54 16.94L18.17 16.94Q19.37 16.94 19.37 16.12L19.37 16.12Q19.37 15.31 18.17 15.31L18.17 15.31L16.54 15.31ZM28.31 22L25.89 22L29.60 13.60L31.94 13.60L35.66 22L33.19 22L32.53 20.37L28.98 20.37L28.31 22ZM30.75 15.93L29.67 18.61L31.83 18.61L30.75 15.93ZM39.23 21.24L39.23 21.24L40.00 19.49Q40.57 19.86 41.31 20.09Q42.06 20.32 42.78 20.32L42.78 20.32Q44.14 20.32 44.15 19.64L44.15 19.64Q44.15 19.28 43.76 19.11Q43.37 18.93 42.50 18.74L42.50 18.74Q41.55 18.53 40.92 18.30Q40.28 18.06 39.83 17.55Q39.37 17.03 39.37 16.16L39.37 16.16Q39.37 15.39 39.79 14.77Q40.21 14.15 41.04 13.79Q41.88 13.43 43.09 13.43L43.09 13.43Q43.91 13.43 44.72 13.62Q45.52 13.80 46.14 14.17L46.14 14.17L45.41 15.93Q44.21 15.28 43.07 15.28L43.07 15.28Q42.37 15.28 42.04 15.49Q41.72 15.70 41.72 16.04L41.72 16.04Q41.72 16.37 42.10 16.54Q42.49 16.71 43.34 16.89L43.34 16.89Q44.30 17.10 44.93 17.33Q45.56 17.56 46.02 18.07Q46.48 18.58 46.48 19.46L46.48 19.46Q46.48 20.21 46.07 20.83Q45.65 21.44 44.81 21.80Q43.97 22.17 42.76 22.17L42.76 22.17Q41.74 22.17 40.78 21.92Q39.82 21.67 39.23 21.24ZM53.44 22L51.06 22L51.06 13.60L53.44 13.60L53.44 16.76L56.68 16.76L56.68 13.60L59.05 13.60L59.05 22L56.68 22L56.68 18.72L53.44 18.72L53.44 22Z" fill="#FFFFFF" x="39"/></svg>