<svg xmlns="http://www.w3.org/2000/svg" width="97.17" height="35" viewBox="0 0 97.17 35"><rect class="svg__rect" x="0" y="0" width="0" height="35" fill="#31C4F3"/><rect class="svg__rect" x="0" y="0" width="97.17" height="35" fill="#2496ED"/><path class="svg__text" d="" fill="#FFFFFF"/><path class="svg__text" d="M18.16 22L14.19 22L14.19 13.60L18.16 13.60Q19.54 13.60 20.61 14.12Q21.68 14.63 22.27 15.58Q22.85 16.53 22.85 17.80L22.85 17.80Q22.85 19.07 22.27 20.02Q21.68 20.97 20.61 21.48Q19.54 22 18.16 22L18.16 22ZM16.57 15.50L16.57 20.10L18.07 20.10Q19.14 20.10 19.80 19.49Q20.45 18.88 20.45 17.80L20.45 17.80Q20.45 16.72 19.80 16.11Q19.14 15.50 18.07 15.50L18.07 15.50L16.57 15.50ZM27.15 17.80L27.15 17.80Q27.15 16.55 27.76 15.55Q28.36 14.56 29.43 14.00Q30.49 13.43 31.82 13.43L31.82 13.43Q33.15 13.43 34.21 14.00Q35.28 14.56 35.88 15.55Q36.49 16.55 36.49 17.80L36.49 17.80Q36.49 19.05 35.88 20.04Q35.28 21.04 34.22 21.60Q33.15 22.17 31.82 22.17L31.82 22.17Q30.49 22.17 29.43 21.60Q28.36 21.04 27.76 20.04Q27.15 19.05 27.15 17.80ZM29.55 17.80L29.55 17.80Q29.55 18.51 29.85 19.05Q30.15 19.60 30.67 19.90Q31.19 20.20 31.82 20.20L31.82 20.20Q32.46 20.20 32.97 19.90Q33.49 19.60 33.79 19.05Q34.09 18.51 34.09 17.80L34.09 17.80Q34.09 17.09 33.79 16.54Q33.49 16 32.97 15.70Q32.46 15.40 31.82 15.40L31.82 15.40Q31.18 15.40 30.67 15.70Q30.15 16 29.85 16.54Q29.55 17.09 29.55 17.80ZM40.79 17.80L40.79 17.80Q40.79 16.54 41.39 15.54Q41.98 14.55 43.04 13.99Q44.09 13.43 45.41 13.43L45.41 13.43Q46.56 13.43 47.48 13.84Q48.41 14.25 49.02 15.02L49.02 15.02L47.51 16.39Q46.70 15.40 45.53 15.40L45.53 15.40Q44.84 15.40 44.31 15.70Q43.78 16 43.48 16.54Q43.19 17.09 43.19 17.80L43.19 17.80Q43.19 18.51 43.48 19.05Q43.78 19.60 44.31 19.90Q44.84 20.20 45.53 20.20L45.53 20.20Q46.70 20.20 47.51 19.22L47.51 19.22L49.02 20.58Q48.41 21.35 47.49 21.76Q46.56 22.17 45.41 22.17L45.41 22.17Q44.09 22.17 43.04 21.61Q41.98 21.05 41.39 20.05Q40.79 19.06 40.79 17.80ZM55.91 22L53.56 22L53.56 13.60L55.91 13.60L55.91 17.09L59.16 13.60L61.78 13.60L58.35 17.32L61.96 22L59.20 22L56.80 18.95L55.91 19.90L55.91 22ZM72.81 22L66.07 22L66.07 13.60L72.66 13.60L72.66 15.44L68.42 15.44L68.42 16.85L72.15 16.85L72.15 18.63L68.42 18.63L68.42 20.17L72.81 20.17L72.81 22ZM79.99 22L77.62 22L77.62 13.60L81.46 13.60Q82.60 13.60 83.44 13.98Q84.28 14.35 84.73 15.06Q85.19 15.76 85.19 16.71L85.19 16.71Q85.19 17.62 84.76 18.30Q84.34 18.98 83.55 19.36L83.55 19.36L85.36 22L82.81 22L81.29 19.77L79.99 19.77L79.99 22ZM79.99 15.47L79.99 17.93L81.31 17.93Q82.05 17.93 82.42 17.61Q82.79 17.29 82.79 16.71L82.79 16.71Q82.79 16.12 82.42 15.79Q82.05 15.47 81.31 15.47L81.31 15.47L79.99 15.47Z" fill="#FFFFFF" x="39"/></svg>