<svg xmlns="http://www.w3.org/2000/svg" width="71.57" height="35" viewBox="0 0 71.57 35"><rect class="svg__rect" x="0" y="0" width="0" height="35" fill="#31C4F3"/><rect class="svg__rect" x="0" y="0" width="71.57" height="35" fill="#E34F26"/><path class="svg__text" d="" fill="#FFFFFF"/><path class="svg__text" d="M16.57 22L14.19 22L14.19 13.60L16.57 13.60L16.57 16.76L19.81 16.76L19.81 13.60L22.18 13.60L22.18 22L19.81 22L19.81 18.72L16.57 18.72L16.57 22ZM29.14 15.48L26.55 15.48L26.55 13.60L34.07 13.60L34.07 15.48L31.51 15.48L31.51 22L29.14 22L29.14 15.48ZM40.64 22L38.45 22L38.45 13.60L40.40 13.60L43.36 18.45L46.24 13.60L48.19 13.60L48.21 22L46.03 22L46.01 17.55L43.85 21.17L42.79 21.17L40.64 17.67L40.64 22ZM59.76 22L53.38 22L53.38 13.60L55.75 13.60L55.75 20.11L59.76 20.11L59.76 22Z" fill="#FFFFFF" x="39"/></svg>