<svg xmlns="http://www.w3.org/2000/svg" width="138.31" height="35" viewBox="0 0 138.31 35"><rect class="svg__rect" x="0" y="0" width="0" height="35" fill="#31C4F3"/><rect class="svg__rect" x="0" y="0" width="138.31" height="35" fill="#F7DF1E"/><path class="svg__text" d="" fill="#FFFFFF"/><path class="svg__text" d="M13.11 20.93L13.11 20.93L14.40 19.40Q15.07 20.27 15.85 20.27L15.85 20.27Q15.85 20.27 15.86 20.27L15.86 20.27Q16.37 20.27 16.64 19.96Q16.91 19.65 16.91 19.05L16.91 19.05L16.91 15.44L14.01 15.44L14.01 13.60L19.27 13.60L19.27 18.91Q19.27 20.54 18.44 21.36Q17.62 22.17 16.03 22.17L16.03 22.17Q15.10 22.17 14.35 21.85Q13.59 21.53 13.11 20.93ZM25.77 22L23.35 22L27.06 13.60L29.40 13.60L33.11 22L30.65 22L29.98 20.37L26.43 20.37L25.77 22ZM28.21 15.93L27.13 18.61L29.29 18.61L28.21 15.93ZM39.85 22L36.26 13.60L38.83 13.60L41.11 19.07L43.44 13.60L45.79 13.60L42.19 22L39.85 22ZM51.36 22L48.93 22L52.64 13.60L54.99 13.60L58.70 22L56.23 22L55.57 20.37L52.02 20.37L51.36 22ZM53.80 15.93L52.71 18.61L54.88 18.61L53.80 15.93ZM62.27 21.24L62.27 21.24L63.05 19.49Q63.61 19.86 64.36 20.09Q65.10 20.32 65.82 20.32L65.82 20.32Q67.19 20.32 67.19 19.64L67.19 19.64Q67.19 19.28 66.80 19.11Q66.41 18.93 65.55 18.74L65.55 18.74Q64.60 18.53 63.96 18.30Q63.32 18.06 62.87 17.55Q62.42 17.03 62.42 16.16L62.42 16.16Q62.42 15.39 62.84 14.77Q63.25 14.15 64.09 13.79Q64.92 13.43 66.13 13.43L66.13 13.43Q66.96 13.43 67.76 13.62Q68.57 13.80 69.18 14.17L69.18 14.17L68.45 15.93Q67.25 15.28 66.12 15.28L66.12 15.28Q65.41 15.28 65.09 15.49Q64.77 15.70 64.77 16.04L64.77 16.04Q64.77 16.37 65.15 16.54Q65.53 16.71 66.38 16.89L66.38 16.89Q67.34 17.10 67.97 17.33Q68.60 17.56 69.07 18.07Q69.53 18.58 69.53 19.46L69.53 19.46Q69.53 20.21 69.11 20.83Q68.69 21.44 67.85 21.80Q67.01 22.17 65.81 22.17L65.81 22.17Q64.79 22.17 63.83 21.92Q62.87 21.67 62.27 21.24ZM73.68 17.80L73.68 17.80Q73.68 16.54 74.28 15.54Q74.87 14.55 75.93 13.99Q76.98 13.43 78.30 13.43L78.30 13.43Q79.45 13.43 80.37 13.84Q81.30 14.25 81.91 15.02L81.91 15.02L80.40 16.39Q79.58 15.40 78.42 15.40L78.42 15.40Q77.73 15.40 77.20 15.70Q76.67 16 76.37 16.54Q76.07 17.09 76.07 17.80L76.07 17.80Q76.07 18.51 76.37 19.05Q76.67 19.60 77.20 19.90Q77.73 20.20 78.42 20.20L78.42 20.20Q79.58 20.20 80.40 19.22L80.40 19.22L81.91 20.58Q81.30 21.35 80.38 21.76Q79.45 22.17 78.30 22.17L78.30 22.17Q76.98 22.17 75.93 21.61Q74.87 21.05 74.28 20.05Q73.68 19.06 73.68 17.80ZM88.82 22L86.45 22L86.45 13.60L90.29 13.60Q91.43 13.60 92.27 13.98Q93.11 14.35 93.56 15.06Q94.02 15.76 94.02 16.71L94.02 16.71Q94.02 17.62 93.59 18.30Q93.17 18.98 92.38 19.36L92.38 19.36L94.19 22L91.64 22L90.12 19.77L88.82 19.77L88.82 22ZM88.82 15.47L88.82 17.93L90.14 17.93Q90.88 17.93 91.25 17.61Q91.62 17.29 91.62 16.71L91.62 16.71Q91.62 16.12 91.25 15.79Q90.88 15.47 90.14 15.47L90.14 15.47L88.82 15.47ZM101.19 22L98.81 22L98.81 13.60L101.19 13.60L101.19 22ZM108.74 22L106.36 22L106.36 13.60L110.21 13.60Q111.34 13.60 112.18 13.98Q113.02 14.35 113.48 15.06Q113.94 15.76 113.94 16.71L113.94 16.71Q113.94 17.66 113.48 18.35Q113.02 19.05 112.18 19.42Q111.34 19.80 110.21 19.80L110.21 19.80L108.74 19.80L108.74 22ZM108.74 15.47L108.74 17.93L110.06 17.93Q110.79 17.93 111.16 17.61Q111.54 17.29 111.54 16.71L111.54 16.71Q111.54 16.12 111.16 15.80Q110.79 15.47 110.06 15.47L110.06 15.47L108.74 15.47ZM120.48 15.48L117.90 15.48L117.90 13.60L125.42 13.60L125.42 15.48L122.86 15.48L122.86 22L120.48 22L120.48 15.48Z" fill="#000000" x="39"/></svg>